<svg id="Layer_1" data-name="Layer 1" xmlns="http://www.w3.org/2000/svg" viewBox="0 0 512 512"><defs><style>.cls-1{fill:#ffc84d;}.cls-2{fill:#adb8bc;}.cls-3{fill:#ffb232;}.cls-4{fill:#dfe5e8;}.cls-5{fill:#d0d9dd;}</style></defs><title>moon-flat</title><path class="cls-1" d="M397.65,361.07c-36.22,69.71-109.07,113.61-187.26,113.61-2.93,0-5.87-.05-8.8-.21-.69-.05-1.39-.05-2.08-.11C92.09,468.81,4.67,380.75.19,273.07A211.8,211.8,0,0,1,96.46,87c5.55-3.63,11.25-6.93,17.17-10A26.78,26.78,0,0,1,149,114.13,154.67,154.67,0,0,0,356.58,327.9c1.33-.75,2.67-1.49,4-2.29a26.78,26.78,0,0,1,37.07,35.47Z"/><path class="cls-1" d="M250.56,100.55l9.3,28.63H290a6.6,6.6,0,0,1,3.88,11.94L269.49,158.8l9.3,28.63a6.6,6.6,0,0,1-10.15,7.38l-24.35-17.69-24.35,17.69a6.6,6.6,0,0,1-10.15-7.38l9.3-28.63-24.35-17.69a6.6,6.6,0,0,1,3.88-11.94h30.1l9.3-28.63A6.6,6.6,0,0,1,250.56,100.55Z"/><circle class="cls-2" cx="266.67" cy="261.33" r="10.67"/><circle class="cls-2" cx="362.68" cy="197.33" r="10.67"/><circle class="cls-2" cx="309.34" cy="47.99" r="10.67"/><path class="cls-1" d="M392.23,329.44a26.35,26.35,0,0,0-31.67-3.82,154.21,154.21,0,0,1-90.08,20.58h0c-75.21-5.75-136.27-66.81-142-142A154.23,154.23,0,0,1,149,114.1,26.76,26.76,0,0,0,113.62,77,211.71,211.71,0,0,0,.19,273.09c4.56,108.37,93,196.84,201.4,201.4,2.94.13,5.86.19,8.79.19A211.8,211.8,0,0,0,397.65,361.05,26.48,26.48,0,0,0,392.23,329.44Z"/><path class="cls-1" d="M397.65,361.07c-36.22,69.71-109.07,113.61-187.26,113.61-2.93,0-5.87-.05-8.8-.21C93.21,469.93,4.72,381.45.19,273.07A211.8,211.8,0,0,1,96.46,87c5.55-3.63,11.25-6.93,17.17-10A26.78,26.78,0,0,1,149,114.13,154.64,154.64,0,0,0,360.58,325.6a26.78,26.78,0,0,1,37.07,35.47Z"/><path class="cls-3" d="M298.66,346.62a179.37,179.37,0,0,1-61.76,6.08C150.28,346,80.14,275.89,73.52,189.28A177.39,177.39,0,0,1,96.46,87c5.55-3.63,11.25-6.93,17.17-10A26.78,26.78,0,0,1,149,114.13,154.78,154.78,0,0,0,292.2,346.4C294.34,346.51,296.52,346.56,298.66,346.62Z"/><path class="cls-3" d="M397.65,361.07c-36.22,69.71-109.07,113.61-187.26,113.61-2.93,0-5.87-.05-8.8-.21-.69-.05-1.39-.05-2.08-.11,110.94-15.84,151.15-128,157.07-146.46,1.33-.75,2.67-1.49,4-2.29a26.78,26.78,0,0,1,37.07,35.47Z"/><path class="cls-4" d="M512,367.21A48.87,48.87,0,0,1,463.14,416h-146a55.74,55.74,0,1,1,0-111.47,58.42,58.42,0,0,1,6.13.32,80.2,80.2,0,0,1,152.38,15.2A49.09,49.09,0,0,1,512,367.21Z"/><path class="cls-5" d="M512,367.21a48.82,48.82,0,0,1-31.2,45.5,42.84,42.84,0,0,0,2.77-15.31,44.52,44.52,0,0,0-41-44.32,81.08,81.08,0,0,0-80.7-73A79.84,79.84,0,0,0,336,284.38a80.14,80.14,0,0,1,139.69,35.68A49.09,49.09,0,0,1,512,367.21Z"/></svg>